<?xml version="1.0" encoding="utf-8"?>
<!-- Generator: Adobe Illustrator 15.1.0, SVG Export Plug-In . SVG Version: 6.00 Build 0)  -->
<!DOCTYPE svg PUBLIC "-//W3C//DTD SVG 1.1//EN" "http://www.w3.org/Graphics/SVG/1.1/DTD/svg11.dtd">
<svg version="1.1" id="Camada_1" xmlns="http://www.w3.org/2000/svg" xmlns:xlink="http://www.w3.org/1999/xlink" x="0px" y="0px"
	 width="467px" height="374px" viewBox="49.14 39.445 467 374" enable-background="new 49.14 39.445 467 374" xml:space="preserve">
<path fill="#001A5A" stroke="#000000" stroke-width="2" stroke-miterlimit="10" d="M502,225.052C502,320.015,404.401,397,284,397
	c-120.398,0-218-76.985-218-171.948c0-94.964,97.602-171.948,218-171.948C404.401,53.104,502,130.088,502,225.052z"/>
<text transform="matrix(0.7782 0 0 1 155.9167 127.4399)" fill="#76AADB" font-family="'BlackoakStd'" font-size="17.5961">INFORMÁTICA</text>
<text transform="matrix(0.7782 0 0 1 155.9167 127.4399)" fill="none" stroke="#F7F7F8" stroke-miterlimit="10" font-family="'BlackoakStd'" font-size="17.5961">INFORMÁTICA</text>
<path stroke="#000000" stroke-miterlimit="10" d="M395,293.507c0,10.271-9.387,18.598-20.968,18.598h-18.834
	c-11.579,0-20.967-8.327-20.967-18.598V193.54c0-10.271,9.388-18.598,20.967-18.598h18.834c11.581,0,20.967,8.327,20.967,18.598
	L395,293.507L395,293.507z"/>
<path fill="#AEADB3" stroke="#000000" stroke-miterlimit="10" d="M352.689,200.355c0,0-12.5,1.5-2.5-4h20h8.5
	c0,0,4.834-2.126,4.167,4.187L352.689,200.355z"/>
<ellipse fill="#9A999E" stroke="#000000" stroke-width="7" stroke-miterlimit="10" cx="364.615" cy="295.5" rx="7.75" ry="6.75"/>
<path fill="#AEADB3" stroke="#000000" stroke-width="2" stroke-miterlimit="10" d="M364.52,223.17h13.38c0,0,10.5,3,0,4
	s-20.72,0-20.72,0l-7.28,0.444c0,0-7.28-3.444,0-4.444S364.52,223.17,364.52,223.17z"/>
<path fill="#9A999E" stroke="#000000" stroke-width="2" stroke-miterlimit="10" d="M175.432,173.502
	c0,0-28.174-15.811-27.575,27.243v40.034c0,0-10.759,59.375,31.834,53.949h43.717v4.114h-43.007c0,0-36.205,3.738-5.679,8.841
	l48.686-2.97l69.867-0.734c0,0,29.105,5.138,7.099-5.871h-32.654h-7.81l-2.131-6.605h29.816l21.006-0.733
	c0,0,10.938,3.599,12.358-13.612v-82.527c0,0,5.521-28.798-16.762-22.104L175.432,173.502z"/>
<path fill="#FFFFFF" stroke="#000000" stroke-width="2" stroke-miterlimit="10" d="M297.64,268.018
	c0,9.102-6.35,16.481-14.18,16.481H182.414c-7.83,0-14.181-7.379-14.181-16.481v-66.153c0-9.103,6.351-16.481,14.181-16.481H283.46
	c7.83,0,14.18,7.379,14.18,16.481V268.018L297.64,268.018z"/>
<path stroke="#000000" stroke-miterlimit="10" d="M285.875,251.861c0.087,9.601-6.209,17.442-14.063,17.514l-77.046,0.703
	c-7.854,0.072-14.294-7.654-14.382-17.255L180,210.807c-0.087-9.6,6.21-17.442,14.063-17.514l77.046-0.704
	c7.854-0.071,14.293,7.655,14.382,17.255L285.875,251.861z"/>
<rect x="203.667" y="200.226" fill="#CB6120" stroke="#CB6120" stroke-miterlimit="10" width="27.06" height="28.785"/>
<rect x="203.667" y="231.333" fill="#009BDB" stroke="#76AADB" stroke-miterlimit="10" width="27.06" height="25.333"/>
<rect x="234.667" y="231.333" fill="#FEEE00" stroke="#F7EC45" stroke-miterlimit="10" width="27" height="25.333"/>
<rect x="234.667" y="199.19" fill="#4F8E3A" stroke="#4F8E3A" stroke-miterlimit="10" width="27" height="29.821"/>
<text transform="matrix(2.5469 0 0 1 203.6658 266.0015)" fill="#F7F7F8" font-family="'Calibri-Light'" font-size="7">windows</text>
</svg>
